<?xml version="1.0" encoding="iso-8859-1"?>
<!-- Generator: Adobe Illustrator 19.0.0, SVG Export Plug-In . SVG Version: 6.00 Build 0)  -->
<svg version="1.1" id="Capa_1" xmlns="http://www.w3.org/2000/svg" xmlns:xlink="http://www.w3.org/1999/xlink" x="0px" y="0px"
	 viewBox="0 0 512.001 512.001" style="enable-background:new 0 0 512.001 512.001;" xml:space="preserve">
<g>
	<g>
		<path d="M498.941,13.076c-0.003-0.003-0.007-0.007-0.011-0.01c-0.003-0.003-0.006-0.007-0.009-0.01
			c-0.009-0.008-0.017-0.015-0.026-0.023c-8.254-8.276-19.685-13.021-31.377-13.021c-5.994,0-11.844,1.203-17.399,3.579
			L28.522,184.383c-10.862,4.138-19.526,12.216-24.417,22.77c-10.273,22.166-0.596,48.558,21.574,58.832l89.635,41.494v59.189
			c0,16.541,13.456,29.999,29.997,29.999h59.19l41.495,89.636c7.231,15.604,23.019,25.686,40.223,25.686
			c6.455,0,12.715-1.384,18.606-4.115c10.554-4.89,18.632-13.555,22.77-24.417L508.391,61.851
			C515.572,45.07,511.847,25.909,498.941,13.076z M34.085,247.836c-12.161-5.636-17.471-20.115-11.834-32.277
			c2.702-5.831,7.504-10.284,13.52-12.538c0.146-0.054,0.29-0.112,0.433-0.173L457.995,21.973c3.046-1.303,6.25-1.964,9.525-1.964
			c2.978,0,5.922,0.567,8.682,1.626L181.677,316.161L34.085,247.836z M145.312,376.665v0.001c-5.513,0-9.998-4.486-9.998-10v-49.932
			l40.966,18.964l18.964,40.966H145.312z M490.008,53.976L309.132,475.774c-0.061,0.143-0.119,0.286-0.174,0.432
			c-2.255,6.018-6.708,10.82-12.539,13.521c-3.237,1.5-6.669,2.261-10.198,2.261c-9.443,0-18.109-5.534-22.076-14.093
			l-68.325-147.593L490.366,35.755C492.582,41.519,492.556,48.021,490.008,53.976z"/>
	</g>
</g>
<g>
	<g>
		<path d="M80.283,211.13c-2.183-5.073-8.065-7.414-13.137-5.231l-0.436,0.188c-5.072,2.184-7.415,8.066-5.23,13.138
			c1.629,3.784,5.315,6.048,9.189,6.048c1.319,0,2.66-0.263,3.949-0.817l0.435-0.188C80.124,222.084,82.467,216.202,80.283,211.13z"
			/>
	</g>
</g>
<g>
	<g>
		<path d="M145.102,183.35c-2.178-5.076-8.054-7.428-13.131-5.249l-38.082,16.33c-5.075,2.176-7.426,8.056-5.249,13.13
			c1.626,3.791,5.316,6.062,9.195,6.062c1.314,0,2.651-0.261,3.937-0.812l38.082-16.33
			C144.928,194.304,147.278,188.426,145.102,183.35z"/>
	</g>
</g>
<g>
</g>
<g>
</g>
<g>
</g>
<g>
</g>
<g>
</g>
<g>
</g>
<g>
</g>
<g>
</g>
<g>
</g>
<g>
</g>
<g>
</g>
<g>
</g>
<g>
</g>
<g>
</g>
<g>
</g>
</svg>
