<?xml version="1.0" encoding="iso-8859-1"?>
<!-- Generator: Adobe Illustrator 19.0.0, SVG Export Plug-In . SVG Version: 6.00 Build 0)  -->
<svg version="1.1" id="Capa_1" xmlns="http://www.w3.org/2000/svg" xmlns:xlink="http://www.w3.org/1999/xlink" x="0px" y="0px"
	 viewBox="0 0 511.997 511.997" style="enable-background:new 0 0 511.997 511.997;" xml:space="preserve">
<g>
	<g>
		<path d="M371.472,48.579c-1.291-3.937-5.53-6.08-9.464-4.79l-2.663,0.873v-2.913c0-4.143-3.358-7.5-7.5-7.5
			c-4.142,0-7.5,3.357-7.5,7.5v2.914l-2.663-0.873c-3.935-1.287-8.173,0.854-9.464,4.79c-1.289,3.936,0.856,8.173,4.791,9.464
			l2.764,0.907l-1.739,2.417c-3.585,4.981,0.027,11.883,6.08,11.883c4.371,0,6.071-3.089,7.732-5.396l1.639,2.276
			c2.418,3.36,7.104,4.127,10.469,1.705c3.361-2.42,4.125-7.106,1.705-10.469l-1.74-2.417l2.764-0.907
			C370.618,56.752,372.763,52.515,371.472,48.579z"/>
	</g>
</g>
<g>
	<g>
		<path d="M445.635,129.084c-1.291-3.937-5.53-6.08-9.464-4.79l-2.663,0.873v-2.913c0-4.143-3.358-7.5-7.5-7.5
			c-4.142,0-7.5,3.357-7.5,7.5v2.913l-2.663-0.873c-3.935-1.285-8.172,0.854-9.464,4.79c-1.289,3.935,0.856,8.172,4.791,9.463
			l2.764,0.907l-1.74,2.417c-2.419,3.362-1.656,8.049,1.706,10.469c3.366,2.423,8.049,1.653,10.469-1.705l1.638-2.276
			c1.576,2.189,3.3,5.396,7.732,5.396c6.04,0,9.671-6.894,6.081-11.883l-1.74-2.417l2.764-0.907
			C444.781,137.257,446.926,133.02,445.635,129.084z"/>
	</g>
</g>
<g>
	<g>
		<circle cx="345.497" cy="111.749" r="7.5"/>
	</g>
</g>
<g>
	<g>
		<circle cx="465.497" cy="233.159" r="7.5"/>
	</g>
</g>
<g>
	<g>
		<circle cx="387.497" cy="175.749" r="7.5"/>
	</g>
</g>
<g>
	<g>
		<circle cx="468.507" cy="77.749" r="7.5"/>
	</g>
</g>
<g>
	<g>
		<path d="M329.94,129.488c-3.905-4.834-9.439-5.319-9.439-5.319c-4.3-0.594-7.935,2.453-8.5,6.35
			c-0.603,4.119,2.258,7.902,6.34,8.5l-13.38,13.04c-1.77,1.73-2.58,4.21-2.16,6.64l3.16,18.421c0,0,0,0-0.01,0
			c-22.035-11.593-18.16-11.517-40.03-0.011h-0.01c-0.011,0.011-0.011,0.011-0.021,0.011l3.16-18.421
			c0.42-2.43-0.39-4.909-2.15-6.64l-13.389-13.04l18.5-2.689c2.44-0.36,4.55-1.891,5.64-4.101l8.28-16.76l3.26,6.61
			c1.27,2.58,3.851,4.189,6.73,4.189c5.552,0,9.171-5.84,6.729-10.83l-3.269-6.609c-5.508-11.28-21.541-10.996-26.91,0l-6.519,13.22
			c-14.879,2.161-19.531,1.858-24.04,7.439c-2.22,2.73-3.4,6.04-3.4,9.57c-0.058,7.779,4.487,10.649,15.09,20.991l-2.49,14.54
			c-0.15,0.84-0.22,1.71-0.22,2.58c-0.01,4.02,1.65,7.92,4.54,10.7c2.903,2.811,6.655,4.27,10.48,4.27
			c4.682,0,6.331-1.404,20.009-8.6h0.01l13.05,6.859c9.923,5.263,22.007-2.041,21.98-13.229c0-0.87-0.07-1.74-0.22-2.58l-2.49-14.54
			l10.559-10.29C334.442,144.32,334.861,135.54,329.94,129.488z"/>
	</g>
</g>
<g>
	<g>
		<path d="M504.497,262.749h-99.822l3.558-3.469c10.024-9.769,4.484-26.804-9.362-28.814l-19.262-2.8l-8.614-17.454
			c-6.194-12.553-24.105-12.547-30.296,0l-8.615,17.454l-19.261,2.8c-13.851,2.011-19.382,19.048-9.363,28.814l3.559,3.469h-26.834
			c0.439-4.332-0.993-8.82-4.304-12.133l-42.426-42.426c-5.849-5.848-15.364-5.848-21.212,0
			c-14.499,14.5-18.781,18.781-26.104,26.105l-28.75-28.75c-7.029-7.03-16.958-9.69-26.562-7.118
			c-9.603,2.573-16.872,9.843-19.445,19.445l-15.035,56.111c-8.977,3.812-16.02,10.852-19.833,19.834l-56.11,15.034
			c-20.447,5.477-27.309,31.025-12.328,46.009l28.75,28.75c-14.747,14.747-24.682,24.683-26.104,26.104
			c-5.863,5.862-5.863,15.351,0,21.214l42.426,42.427c2.924,2.924,6.765,4.386,10.606,4.386s7.682-1.462,10.606-4.386l195.6-195.606
			h227.037v177.5c-0.01,4.12-3.37,7.489-7.5,7.5H236.502c-4.13-0.011-7.49-3.38-7.5-7.5v-95.65c0-4.13-3.36-7.5-7.5-7.5
			c-4.13,0-7.49,3.36-7.5,7.48c0,0.01,0,0.02,0,0.02v95.65c0,6.01,2.34,11.66,6.59,15.91c4.25,4.239,9.9,6.59,15.91,6.59h252.995
			c12.379,0,22.5-10.013,22.5-22.5v-185C511.997,266.075,508.584,262.749,504.497,262.749z M125.868,221.756
			c2.49-9.293,14.102-12.415,20.912-5.604l28.75,28.75c-10.325,10.325-22.166,22.166-34.668,34.669l9.049-33.772
			c1.072-4.002-1.302-8.114-5.303-9.186c-4.001-1.073-8.114,1.302-9.185,5.303l-8.711,32.511c-4.455-2.059-9.216-3.203-14.042-3.41
			L125.868,221.756z M104.677,286.901c8.131-2.372,16.842-0.069,22.697,6.159c-10.519,10.518-21.271,21.27-31.788,31.788
			C82.878,312.874,88.129,291.728,104.677,286.901z M18.68,344.255c-3.195-3.196-4.405-7.71-3.235-12.075
			c1.169-4.365,4.474-7.669,8.838-8.839l49.262-13.199c0.207,4.826,1.351,9.587,3.409,14.043l-32.51,8.711
			c-4.002,1.071-6.376,5.185-5.303,9.186c1.072,4.001,5.184,6.375,9.185,5.304l33.772-9.049
			c-12.503,12.503-24.347,24.348-34.669,34.669L18.68,344.255z M63.751,462.749l-42.425-42.426
			c1.587-1.587,13.764-13.764,31.407-31.407c0-0.001,0-0.001,0-0.001l0.001-0.001c13.74-13.74,122.165-122.167,138.704-138.707
			l0.002-0.002c13.153-13.154-3.966,3.966,31.406-31.407l42.432,42.418L63.751,462.749z M397.763,248.539l-14.578,14.211h-54.678
			c-15.674-15.28-15.558-14.611-15.057-16.151c0.507-1.56-0.236-1.033,24.692-4.655c2.443-0.354,4.555-1.889,5.647-4.103
			c11.184-22.66,10.437-22.046,12.057-22.046c1.621,0,0.873-0.614,12.056,22.046c1.093,2.214,3.204,3.748,5.647,4.103l23.165,3.366
			C398.279,245.537,398.897,247.433,397.763,248.539z"/>
	</g>
</g>
<g>
</g>
<g>
</g>
<g>
</g>
<g>
</g>
<g>
</g>
<g>
</g>
<g>
</g>
<g>
</g>
<g>
</g>
<g>
</g>
<g>
</g>
<g>
</g>
<g>
</g>
<g>
</g>
<g>
</g>
</svg>
